<svg width="50" height="53" fill="none" xmlns="http://www.w3.org/2000/svg"><circle cx="25" cy="28" r="25" fill="#68B738"/><g clip-path="url(#clip0)"><path d="M35.2 0H35c-.3.2-.6.5-.7.8a8 8 0 00-.7 1.8.8.8 0 01-.8.7 3.8 3.8 0 00-2.7 2 14 14 0 00-1 2L27.3 13c-.3 1-.3 1-1.3 1-1.2 0-1-.3-1.1 1 0 .4.1.6.5.6l.4.1c0 .2 0 .3-.2.4-.6.6-1.4 1-2.2 1.2l-3 .8c-2.4.8-4.6 2-6.4 4-1 1.1-1.9 2.5-2.4 4A56.6 56.6 0 007.9 40a97 97 0 00-.7 6.7L7 50h17.1v-.7a2.6 2.6 0 00-2-1.5c-.4-.1-.4-.2-.2-.5l.8-1.6c.8-2.5 1.2-5 1.6-7.6.2-2 .8-3.9 1.7-5.6.8-1.3 1.7-2.4 2.9-3.3.4-.3.4-.3.5.2l.1 1.1c.2 2.5.1 5 0 7.3a31.9 31.9 0 001 12.2h6.8a2.8 2.8 0 00-2.1-2.3l-2 .1c-.3 0-.4 0-.4-.3-.2-2.7 0-5.5.5-8.2.7-3 1.2-6.2 1.6-9.3 0-1.3.5-2.5 1.1-3.7l1.8-3.3a3 3 0 00.2-2.7l-.5-1-1.5-3c-.2-.6-.1-.6.4-.7.9 0 .9 0 .9-.8v-.3c0-.4-.2-.6-.5-.6H36c-.4 0-.5-.1-.4-.5a3.2 3.2 0 012.6-2.3c1.2 0 2.3 0 3.4.3a.5.5 0 00.7-.4 40 40 0 01.7-1.8l-.1-.3a18.3 18.3 0 00-6.2-5.5l-.1-.4-.7-2.1c-.1-.4-.4-.7-.7-.9z" fill="#000"/></g><defs><clipPath id="clip0"><path fill="#fff" transform="translate(7)" d="M0 0h36v50H0z"/></clipPath></defs></svg>