<svg width="78" height="80" fill="none" xmlns="http://www.w3.org/2000/svg"><path d="M64 34.7H14a3.2 3.2 0 01-3.2-3.1V22c0-1.8 1.5-3.2 3.2-3.2h50c1.8 0 3.2 1.4 3.2 3.2v9.5c0 1.7-1.4 3.1-3.2 3.1zM14 21.3c-.4 0-.7.4-.7.8v9.5c0 .4.3.7.7.7h50c.4 0 .8-.3.8-.7V22c0-.4-.4-.8-.8-.8H14z" fill="#fff"/><path d="M57 67.1H21a6.1 6.1 0 01-6.1-6V33.5c0-.7.5-1.2 1.2-1.2s1.2.5 1.2 1.2v27.6c0 2 1.7 3.6 3.7 3.6h36c2 0 3.7-1.6 3.7-3.6V33.5c0-.7.6-1.2 1.2-1.2.7 0 1.3.5 1.3 1.2v27.6c0 3.3-2.8 6-6.2 6z" fill="#fff"/><path d="M39 67.1c-.7 0-1.2-.5-1.2-1.2V33.5c0-.7.5-1.2 1.2-1.2s1.2.5 1.2 1.2v32.4c0 .7-.5 1.2-1.2 1.2zM23.8 21.3a7.8 7.8 0 01-3.2-10.6 8 8 0 0110.7-3.1c5.8 3.1 9 11.8 9 12.2l-2.2.8s-3-8.2-8-10.9a5.4 5.4 0 10-5.2 9.5l-1 2.1z" fill="#fff"/><path d="M54.2 21.3l-1.1-2a5.4 5.4 0 00-1-10 5.4 5.4 0 00-4.2.4c-5 2.7-8 10.8-8 11l-2.2-.9c0-.4 3.2-9 9-12.2a7.9 7.9 0 0111.3 9c-.6 2.1-2 3.7-3.8 4.7zM62 51H16c-.6 0-1.1-.6-1.1-1.3 0-.6.5-1.2 1.2-1.2h45.8c.7 0 1.3.6 1.3 1.2 0 .7-.6 1.2-1.3 1.2z" fill="#fff"/></svg>