<svg width="16" height="16" fill="none" xmlns="http://www.w3.org/2000/svg"><path d="M8 0l3.3.1a6 6 0 011.9.4 4 4 0 012.3 2.3l.4 2a91.9 91.9 0 010 6.5 6 6 0 01-.4 1.9 4 4 0 01-2.3 2.3 6 6 0 01-2 .4 91.9 91.9 0 01-6.5 0 6 6 0 01-1.9-.4 4 4 0 01-2.3-2.3 6 6 0 01-.4-2 91.7 91.7 0 010-6.5c0-.7.2-1.3.4-1.9A4 4 0 012.8.5a6 6 0 012-.4H8zm0 1a98.8 98.8 0 00-5 .4c-.7.4-1.3.9-1.6 1.6a98.8 98.8 0 000 10c.3.7.9 1.2 1.6 1.5a98.7 98.7 0 0010 0c.7-.3 1.2-.8 1.5-1.6a98.7 98.7 0 000-10c-.3-.6-.8-1.2-1.6-1.5a98.8 98.8 0 00-5-.3zm0 10.2a3 3 0 002.2-1 3 3 0 001-2.2 3 3 0 00-1-2.3A3 3 0 008 4.8a3 3 0 00-2.3 1A3 3 0 004.8 8a3 3 0 001 2.2 3 3 0 002.2 1zm0-7.3a4 4 0 012.9 1.2A4 4 0 0112 8a4 4 0 01-1.1 2.9 4 4 0 01-3 1.1A4 4 0 015.2 11a4 4 0 01-1.2-3c0-1 .4-2 1.2-2.8A4 4 0 018 4zm5.2-.1l-.3.6a1 1 0 01-.7.3c-.3 0-.5 0-.7-.3a.9.9 0 01-.2-.6 1 1 0 01.9-1c.3 0 .5 0 .7.3.2.2.3.4.3.7z" fill="#666"/></svg>