<svg width="60" height="60" fill="none" xmlns="http://www.w3.org/2000/svg"><path fill="#68B738" d="M0 0h60v60H0z"/><path fill-rule="evenodd" clip-rule="evenodd" d="M36.6 15c.4 0 .8 0 1.1.3 1 .9 2.1 2.9 3 6 1 3 1.8 7.2 1.8 12.7 0 .6-.4 1-1 1H38v9a1 1 0 11-2 0V16c0-.4.2-.8.6-1zM38 33h2.5A39.6 39.6 0 0038 19.5V33zM24 15c.6 0 1 .4 1 1v28a1 1 0 11-2 0V16c0-.6.4-1 1-1z" fill="#fff"/><path fill-rule="evenodd" clip-rule="evenodd" d="M19.5 15c.6 0 1 .4 1 1v5.5c0 .6.2 1.3.7 2 .5.5 1.3 1 2.8 1a1 1 0 110 2c-2 0-3.4-.7-4.3-1.8a5 5 0 01-1.2-3.2V16c0-.6.4-1 1-1z" fill="#fff"/><path fill-rule="evenodd" clip-rule="evenodd" d="M28.5 15a1 1 0 00-1 1v5.5a3 3 0 01-.7 2c-.5.5-1.3 1-2.8 1a1 1 0 000 2c2 0 3.4-.7 4.3-1.8a5 5 0 001.2-3.2V16c0-.6-.4-1-1-1z" fill="#fff"/></svg>