<svg width="60" height="60" fill="none" xmlns="http://www.w3.org/2000/svg"><path fill="#68B738" d="M0 0h60v60H0z"/><g clip-path="url(#clip0)" fill="#fff"><path d="M35.8 31.5c-1.7 0-3.1 1.5-3.1 3.3 0 1.8 1.4 3.3 3 3.3 1.8 0 3.2-1.5 3.2-3.3 0-1.8-1.4-3.3-3.1-3.3zm0 5c-1 0-1.6-.8-1.6-1.7 0-1 .7-1.7 1.6-1.7.9 0 1.6.7 1.6 1.7s-.7 1.7-1.6 1.7zM26.6 13c-1.8 0-3.2 1.5-3.2 3.4s1.4 3.4 3.2 3.4c1.8 0 3.2-1.5 3.2-3.4S28.4 13 26.6 13zm0 5.5c-1 0-2-1-2-2.1s1-2 2-2 2 .9 2 2-1 2-2 2zM23.2 30.6c-1.3 0-2.3 1.1-2.3 2.5s1 2.5 2.3 2.5c1.3 0 2.4-1.1 2.4-2.5s-1-2.5-2.4-2.5zm-.2 1.9c-.5 0 1.2 1.1 1.2.6 0-.5-1.7.4-1.2.4s1-.9 1-.4-.5-.6-1-.6zM33.5 22.8s3-.9 6.2 1.5c.9.7 1.7 1.3 1.1 2-.3.4-.6.7-1.7-.4a7 7 0 00-5.6-1.5c-1.1.2-2 .6-3.6 2.2a8.3 8.3 0 01-6.5 2.5 8.1 8.1 0 01-5.2-2.6c-.3-.4-.3-.9-.1-1.1.1-.3.8-.5 1.2-.1.3.3 2 2 3.8 2 1.7.1 3.4.2 5.7-2 2.3-2.1 3.5-2.3 4.7-2.5z"/><mask id="a"><path d="M43.6 39.8V21.2c0-.6-.3-.7-.5-.7h-.5c-.5 0-.5.6-.5.7v18.6c0 .4-.1 1.2-.8 2-.9.6-1.7.5-1.7.5H19c-.4 0-1-.2-1.6-1-.6-.8-.5-1.9-.5-1.9v-18c0-1-.7-.9-.7-.9H16c-.5 0-.5.6-.5.8v18.5c0 1.4.4 2.4 1.5 3.4 1.1.9 2.4.8 2.4.8h20.6c.8 0 2-.4 2.9-1.5.9-1.2.8-2.7.8-2.7z"/></mask><path d="M43.6 39.8V21.2c0-.6-.3-.7-.5-.7h-.5c-.5 0-.5.6-.5.7v18.6c0 .4-.1 1.2-.8 2-.9.6-1.7.5-1.7.5H19c-.4 0-1-.2-1.6-1-.6-.8-.5-1.9-.5-1.9v-18c0-1-.7-.9-.7-.9H16c-.5 0-.5.6-.5.8v18.5c0 1.4.4 2.4 1.5 3.4 1.1.9 2.4.8 2.4.8h20.6c.8 0 2-.4 2.9-1.5.9-1.2.8-2.7.8-2.7z"/><path d="M43.6 39.8h-20v.8l20-.8zm-.5-19.3l.7-20h-.7v20zm-1 .7l-20-.1v.1h20zm0 .1H22h20zm0 18.5l-20-.7 20 .7zm-.8 2l13 15 .4-.3.4-.4-13.8-14.4zm-1.7.5L42 22.5l-1.1-.2h-1.2v20zm-20.6 0L15.6 62l1.1.2H18l1-19.9zm-1.6-1L1 52.8l16.4-11.5zm-.5-1.9l20 2.1v-2H17zm-.7-18.9v20h.8l-.8-20zm-.8.8l-20-.3V21.3h20zm1.5 21.9l-13 15.1 13-15.1zm2.4.8V24H18l1.3 20zm23.5-1.5L58.3 55 42.8 42.5zm20.8-2.7V21.2h-40v18.6h40zm0-18.6A20.6 20.6 0 0043.8.5l-1.4 40a19.5 19.5 0 01-18.8-19.3h40zM43.1.5h-.5v40h.5V.5zm-.5 0a20.5 20.5 0 00-20.5 20.6l40 .3c0 .7 0 3.9-1.7 7.6a19.5 19.5 0 01-17.8 11.5V.5zM22.1 21.2h40-40zm0 0v.1h40-40zm0 .1v10.5a8664.8 8664.8 0 010 7.3c0 .8 0 .4 0 0l40 1.5v-1.5a1362.3 1362.3 0 000-7.3V21.3H22zm0 17.8c0-1.4.4-7 5.3-11.8L55 56.1a22.7 22.7 0 007-15.5L22 39zm6.1-12.5a17.5 17.5 0 0113.6-4.1 2078 2078 0 01-4.4 39.7 43 43 0 002.9.1 22 22 0 0014-5.4l-26-30.3zm11.4 15.7v-20H36.5a17380.8 17380.8 0 01-16.4 0c-1 0-.6 0 0 0l-2.2 40H39.6v-20zM22.4 22.6a17.6 17.6 0 0111.3 7.2L1 52.8C6 60 13 61.6 15.6 62l6.8-39.4zm11.3 7.2a17.3 17.3 0 013.1 11.7l-19.9-2A3223.4 3223.4 0 00-3 37.3a19.9 19.9 0 000 5c.3 2.2 1.1 6.3 4 10.4l32.7-23zm3.2 9.6v-18H-3v18h40zm0-18A20.7 20.7 0 0015.5.4l.7 20 .8 20a28.2 28.2 0 01-4-.3A19.3 19.3 0 01-3 21.3h40zM16.2.4H16v40h.3V.5zm-.3 0A20.5 20.5 0 00-4.6 21l40 .6c0 .7 0 4-1.8 7.7a19.4 19.4 0 01-17.7 11.2V.5zM-4.6 21.3V39.9h40v-.1-.1-.1-.1-.1-.1-.1-.1-.1-.1-.1-.1-.1-.1-.1-.1-.1-.1-.1-.1-.1-.1-.1-.1-.1-.1-.1-.1-.1-.1-.1-.1-.1-.1-.1-.1-.1-.1-.1-.1-.1-.1-.1-.1-.1-.1-.1-.1-.1-.1-.1-.1-.1-.1-.1-.1-.1-.1-.1-.1-.1-.1-.1-.1-.1-.1-.1-.1-.1-.1-.1-.1-.1-.1-.1-.1-.1-.1-.1-.1-.1-.1-.1-.1-.1-.1-.1-.1-.1-.1-.1-.1-.1-.1-.1-.1-.1-.1-.1-.1-.1-.1-.1-.1-.1-.1-.1-.1-.1-.1-.1-.1-.1-.1-.1-.1-.1-.1-.1-.1-.1-.1-.1-.1-.1-.1-.1-.1-.1-.1-.1-.1-.1-.1-.1-.1-.1-.1-.1-.1-.1-.1-.1-.1-.1-.1-.1-.1-.1-.1-.1-.1-.1-.1-.1-.1-.1-.1-.1-.1-.1-.1-.1-.1-.1-.1-.1-.1-.1-.1-.1-.1-.1-.1-.1-.1-.1-.1-.1-.1-.1-.1-.1-.1-.1h-40zm0 18.5c0 7 2.9 13.7 8.5 18.5l26-30.3a15.6 15.6 0 015.5 11.8h-40zm8.5 18.5A23.6 23.6 0 0020.4 64h.1l-1.2-20A2530.9 2530.9 0 0118 24h.1a16 16 0 014.5.4c2 .4 4.7 1.3 7.3 3.6L4 58.3zM19.3 44v20H40l-.1-40h-.1-20.2-.2v20zm20.6 20c7.1 0 13.8-3.3 18.4-8.9l-31-25.3C30 26.5 34.4 24 39.8 24l.1 40zm18.4-8.9a24 24 0 005.3-16l-20 .7-20 .8v-.1a17.1 17.1 0 01.3-3.7 16 16 0 013.4-7l31 25.3z" mask="url(#a)"/></g><defs><clipPath id="clip0"><path fill="#fff" transform="translate(15 13)" d="M0 0h29v31H0z"/></clipPath></defs></svg>