<svg width="60" height="60" fill="none" xmlns="http://www.w3.org/2000/svg"><path fill="#68B738" d="M0 0h60v60H0z"/><circle cx="35.2" cy="24.3" fill="#fff" r="1.1"/><circle cx="24.3" cy="24.3" fill="#fff" r="1.1"/><circle cx="24.3" cy="37.4" fill="#fff" r="1.1"/><circle cx="29.8" cy="39.5" fill="#fff" r="1.1"/><circle cx="21.1" cy="30.8" fill="#fff" r="1.1"/><circle cx="38.5" cy="30.8" fill="#fff" r="1.1"/><circle cx="35.2" cy="37.4" fill="#fff" r="1.1"/><mask id="a" fill="#fff"><path fill-rule="evenodd" clip-rule="evenodd" d="M35 42a1 1 0 011.1.3L38 44a.7.7 0 001-1l-1.4-1.3c-.4-.5-.4-1.2 0-1.6 2.7-2.3 4.4-5.7 4.4-9.6 0-7-5.5-12.6-12.2-12.6-6.8 0-12.3 5.6-12.3 12.6 0 3.8 1.7 7.2 4.3 9.6a1 1 0 010 1.5l-1.4 1.5a.7.7 0 101 1l1.9-2a1 1 0 011.2-.2A11.9 11.9 0 0035 42zm-5.2-.2c6 0 10.8-5 10.8-11.2a11 11 0 00-10.8-11.2c-6 0-11 5-11 11.2a11 11 0 0011 11.2zM29 30.3v-7.4a.8.8 0 111.6 0V31.1c0 .5-.4.8-.8.8a.8.8 0 01-.8-.7v-.9z"/></mask><path fill-rule="evenodd" clip-rule="evenodd" d="M35 42a1 1 0 011.1.3L38 44a.7.7 0 001-1l-1.4-1.3c-.4-.5-.4-1.2 0-1.6 2.7-2.3 4.4-5.7 4.4-9.6 0-7-5.5-12.6-12.2-12.6-6.8 0-12.3 5.6-12.3 12.6 0 3.8 1.7 7.2 4.3 9.6a1 1 0 010 1.5l-1.4 1.5a.7.7 0 101 1l1.9-2a1 1 0 011.2-.2A11.9 11.9 0 0035 42zm-5.2-.2c6 0 10.8-5 10.8-11.2a11 11 0 00-10.8-11.2c-6 0-11 5-11 11.2a11 11 0 0011 11.2zM29 30.3v-7.4a.8.8 0 111.6 0V31.1c0 .5-.4.8-.8.8a.8.8 0 01-.8-.7v-.9z" fill="#fff"/><path d="M23.3 42.2L26 45l-2.8-2.8zm1.2-.2l1.8-3.6-1.8 3.6zm-3.1 2.1l-2.9-2.8 2.9 2.8zm-1-1l2.9 2.9-2.9-2.8zm17.2-1.3l-2.9 2.8 2.9-2.8zm0-1.6l-2.6-3 2.7 3zm-15.8 0l-2.7 3 2.7-3zm0 1.5L19 39l2.9 2.8zM39 43.2l3-2.8-3 2.8zm-1 1l3-2.9-3 2.8zm-1.8-2L33.3 45l2.8-2.7zm-1.2-.1l-1.7-3.6 1.7 3.6zm-1.6 3l1.8 1.8 5.7-5.6-1.8-1.8-5.7 5.5zm8.5-4.7L40.5 39l-5.8 5.6 1.4 1.4 5.7-5.6zm-1.5 2.8c3.5-3 5.7-7.6 5.7-12.6h-8c0 2.7-1.2 5-3 6.6l5.3 6zM46 30.6c0-9-7.2-16.6-16.2-16.6v8c4.4 0 8.2 3.7 8.2 8.6h8zM29.8 14c-9.1 0-16.3 7.6-16.3 16.6h8c0-4.9 3.8-8.6 8.3-8.6v-8zM13.5 30.6c0 5 2.2 9.5 5.6 12.5l5.3-6a8.8 8.8 0 01-2.9-6.5h-8zM19 39l-1.4 1.5 5.7 5.6 1.4-1.5-5.7-5.6zm5.3 8l1.8-2-5.7-5.5-1.9 2 5.8 5.5zm-1.6-1.3c2.2 1 4.6 1.6 7 1.6v-8c-1.2 0-2.4-.3-3.4-.8l-3.6 7.2zm7 1.6c2.5 0 4.9-.5 7-1.5l-3.5-7.2c-1 .5-2.2.7-3.4.7v8zm0-1.4a15 15 0 0015-15.2h-8a7 7 0 01-7 7.2v8zm15-15.2a15 15 0 00-15-15.2v8a7 7 0 017 7.2h8zm-15-15.2A15 15 0 0015 30.6h8a7 7 0 016.9-7.2v-8zM15 30.6a15 15 0 0014.9 15.2v-8a7 7 0 01-7-7.2h-8zm11.7-.3v.5h8v-.5h-8zm0 .5v.3h8v-.3h-8zm6.4.4v-.4h-8v.4h8zm0-.4v-.5h-8v.5h8zm0-.5v-3.8h-8v3.8h8zm0-3.8v-3.6h-8v3.6h8zm-6.4-3.6v3.6h8v-3.6h-8zm0 3.6v3.8h8v-3.8h-8zm3.2-8.3a4.8 4.8 0 00-4.8 4.7h8c0 1.8-1.4 3.3-3.2 3.3v-8zm-3.2 13c0-1.8 1.4-3.3 3.2-3.3v8c2.6 0 4.8-2.1 4.8-4.8h-8zM26 45a3 3 0 01-3.4.6l3.6-7.2a5 5 0 00-5.9 1l5.7 5.6zm-8.5 2a4.7 4.7 0 006.7 0l-5.8-5.7a3.3 3.3 0 014.8 0L17.6 47zm0-6.6a4.7 4.7 0 000 6.5l5.7-5.6a3.3 3.3 0 010 4.7l-5.7-5.6zM40.5 39a3 3 0 01-.2 4.2l-5.3-6a5 5 0 00-.3 7.4l5.8-5.6zM29.8 26.2a3.2 3.2 0 01-3.2-3.3h8c0-2.6-2.2-4.7-4.8-4.7v8zM19 43.2a3 3 0 01-.1-4.3l5.7 5.6a5 5 0 00-.3-7.3l-5.3 6zm22.7 3.7a4.7 4.7 0 000-6.5L36.1 46a3.3 3.3 0 010-4.7l5.7 5.6zm-6.7 0a4.7 4.7 0 006.7 0l-5.7-5.6a3.3 3.3 0 014.7 0L35.1 47zm-5.3-19c1.8 0 3.2 1.5 3.2 3.3h-8c0 2.6 2.1 4.7 4.8 4.7v-8zM39 39.5a5 5 0 00-5.8-1l3.5 7.2a3 3 0 01-3.4-.7l5.7-5.5z" fill="#fff" mask="url(#a)"/><path fill="#fff" d="M29 19v-4h1.5v4z"/><rect x="22" y="15" width="15.5" height="1.5" rx=".8" fill="#fff"/></svg>