<svg width="60" height="60" fill="none" xmlns="http://www.w3.org/2000/svg"><path fill="#68B738" d="M0 0h60v60H0z"/><g clip-path="url(#clip0)"><path d="M42.8 16.8a1 1 0 00-.9-.8c-5 0-17 1-21.8 8.4-2.5 3.9-2.7 8.9-.6 15-.7 2-1 3.4-1 3.4 0 .5.2 1 .7 1.2h.2a1 1 0 001-.8s2.4-10.4 10.8-16.4c.4-.3.6-.9.3-1.4a.9.9 0 00-1.3-.2 30 30 0 00-9.5 11.6c-1.3-4.6-1-8.4 1-11.3 3.7-5.7 12.6-7.1 18-7.4A20 20 0 0037.2 29c0 3.1-.8 5.5-2.4 7.1-2.6 2.6-6.9 2.9-10 2.6-.5 0-1 .4-1 1 0 .5.3 1 .8 1l2 .1c3.2 0 6.9-.7 9.5-3.2 2-2 3-4.9 3-8.6 0-9.1 3.2-11 3.3-11.1.3-.2.5-.7.4-1.1z" fill="#fff"/></g><defs><clipPath id="clip0"><path fill="#fff" transform="translate(15 14)" d="M0 0h30v32H0z"/></clipPath></defs></svg>