<svg width="128" height="24" fill="none" xmlns="http://www.w3.org/2000/svg"><g clip-path="url(#clip0)" fill="#111"><path d="M1.6 22A9.5 9.5 0 010 16.4V7.8c-.1-2 .4-4.1 1.5-5.9C2.6.6 4.3 0 6.8 0S11 .6 12 1.7c1.1 1.5 1.6 3.3 1.5 5v2.1H8.5V6.5c0-.7 0-1.4-.3-2-.1-.4-.3-.6-.6-.7-.2-.2-.5-.2-.8-.2-.7 0-1.2.2-1.4.7-.2.7-.3 1.5-.3 2.3v11c0 .7 0 1.4.4 2 .2.6.7.8 1.4.8s1.1-.2 1.3-.7c.2-.7.3-1.4.3-2.2v-2.4h5v2a8 8 0 01-1.6 5.2C11 23.5 9.2 24 7 24c-2.5-.1-4.3-.7-5.3-2zM19.3.3H25l4.2 23.4h-4.6l-.8-5h-3.3l-.8 5H15L19.3.3zm4.1 15.4l-1.2-9.1-1.2 9h2.4zM32.8 4.2h-3.5V.3h12v3.8h-3.4v19.6h-5.1V4.2zM50.4.3h8.8v2.5h-5.7v7.7H58v2.3h-4.6v8.6h5.7v2.4h-9V.3h.2zM61.8.3H64l6.5 15.5V.3h2.6v23.4h-2l-6.6-16v16h-2.7V.3zM76.1.3H85v2.5h-5.7v7.7h4.6v2.3h-4.6v8.6H85v2.4h-8.8V.3zM87.5.3h4.6c1.9-.1 3.7.4 5.2 1.4 1 1 1.6 2.6 1.6 4.8 0 3-1 4.8-2.8 5.4l3.2 11.7h-3.1l-3-11h-2.6v11h-3.2V.3h.1zm4.4 10c1 .1 2.1-.1 3-.8.5-.5.8-1.5.8-3 0-.8 0-1.6-.3-2.3-.2-.5-.6-1-1-1.2-.7-.3-1.5-.5-2.3-.4h-1.4v7.7H92zM102.9 22c-1-1.8-1.6-4-1.4-6V8.2c0-1.5.1-3 .5-4.4.3-1 1-2 1.9-2.7 1-.6 2.4-1 3.7-.9 2 0 3.6.5 4.5 1.6a8 8 0 011.4 5.2v.8h-3V7c0-.9 0-1.7-.2-2.6-.1-.5-.4-1-.8-1.3a3 3 0 00-2-.5 3 3 0 00-2 .6 2.3 2.3 0 00-.7 1.6c-.2 1-.2 1.9-.2 2.8v8.7c-.1 1.3 0 2.7.6 4 .4.7 1.2 1 2.4 1a2.4 2.4 0 002.4-1.2c.5-1.3.7-2.7.7-4.1v-1.6h-3V12h5.9v11.6h-2l-.3-2.7c-.3 1-.8 1.7-1.6 2.2a4 4 0 01-2.5.8 5 5 0 01-4.3-2zM120 15.5l-5-15h3l3.6 11.2L125 .4h3l-5 15v8.3h-3v-8.2z"/></g><defs><clipPath id="clip0"><path fill="#fff" d="M0 0h128v24H0z"/></clipPath></defs></svg>