<svg width="67" height="50" fill="none" xmlns="http://www.w3.org/2000/svg"><circle cx="34.5" cy="25" r="25" fill="#68B738"/><g clip-path="url(#clip0)"><path d="M61.5 13.9c.6-1 1.4-1.7 2.3-2.3.5-.3.8-.3 1.1.3.4 1 .8 2 .4 3a1.1 1.1 0 00.3 1l.8 1.2a3.1 3.1 0 01.4 3.1c-.2.5-.2 1-.1 1.6v1.4a1.9 1.9 0 01-1.4 1.7c-.6 0-1.2.4-1.5 1a.5.5 0 01-.5.2c-.6.1-2.1-1.3-2.1-1.9V24c0-1.8 0-1.9-1.7-2.6-.3-.2-.7-.4-.9-.7-.3-.4-.7-.3-1.1-.2-.5.2-.8.5-.7 1 .2 1.2.2 2.4.2 3.7v.3c1.6 2.3 2.2 5 3 7.5.5 2 1.6 3 3.6 3.1l1 .2a2 2 0 011.7 1.6c.4 1 .2 1.3-.9 1.3h-3.3c-.4 0-.8-.1-1.1-.4-.5-.4-1-.8-1.7-1-.7-.3-1.3-.7-1.7-1.3l-2-2.3c-1.4-1.4-2.9-2.8-4.2-4.3-1-1-1.6-2.4-1.6-3.8 0-.4-.1-.6-.6-.4a1 1 0 01-.5.1c-1.4 0-2.1.9-2.6 2.1l-1.6 3.1c-.3.7-.5 1.4-.5 2.1 0 1.2.3 1.6 1.4 2 .7.3 1.4.5 1.7 1.2.4.8.3 1-.6 1h-3.4a1 1 0 01-.9-.5l-.9-1.5a3 3 0 01-.3-2.7 6 6 0 000-2.6 4.2 4.2 0 01.9-3.5c.3-.4.3-.5-.3-.6a25 25 0 01-5.9-2.2c-1.6-.6-1.9-.5-2.4 1.2-.3 1.4-.8 2.8-1 4.3-.4 1.5 0 3 .5 4.5.2.6.8.6 1.3.8 1 .3 1.8.6 2.2 1.7.4.8.3.9-.5.9h-2.6c-.8 0-1.6-.2-2.2-.7-2.4-1.6-3-4-3.3-6.7 0-1.7-1-3-2-4.2-.2-.3-.4-.3-.7-.1l-3.4 1.4c-2.4.9-4.5 2.4-6 4.4-.6.8-1 1.7-1.2 2.6-.1.9.2 1.3 1 1.5 1 .3 1.4.8 1.5 1.8 0 .4-.1.5-.5.5h-4a.8.8 0 01-.7-.4c-.6-.7-1-1.7-1-2.7 0-1.7.2-3.5.5-5.1a3.1 3.1 0 011.7-2.4c3-1.4 4.5-4.1 5.9-6.8.3-.6 0-.7-.4-.7-1.4.2-2.8.8-3.9 1.7-1.5 1-2.9 2.2-4.2 3.5A8.3 8.3 0 015.3 27C1.5 27.4-.2 25.3 0 22c0-1.1.5-2.2 1.2-3a2.1 2.1 0 012.2-.8c.8.2 1 .6.7 1.3l-.5.9-.5 1c-.6 1.5.2 2.6 1.7 2.7 1.7.1 3-.6 4.3-1.6 1.5-1.2 2.9-2.6 4-4.1a10.4 10.4 0 017.2-4c1.1-.2 2.1-.7 3.3-1 2-.6 4.1-1 6.3-.9 1 0 2-.1 2.9-.6 2.5-1 5-1 7.6-.5l5.9 1.4c1.2.3 2.4.2 3.5 0 2.2-.6 4.4-1 6.7-1a9 9 0 014.3.8c1 .4 1 .4.8 1.4z" fill="#000"/></g><defs><clipPath id="clip0"><path fill="#fff" transform="translate(0 11)" d="M0 0h67v28H0z"/></clipPath></defs></svg>